<svg width="531" height="524" viewBox="0 0 531 524" fill="none" xmlns="http://www.w3.org/2000/svg">
<path fill-rule="evenodd" clip-rule="evenodd" d="M3.58131 85.514C-3.13618 39.8684 35.8786 0.0660546 81.6144 6.13886C142.416 14.212 215.678 23.1049 243.38 23.1049C276.665 23.1049 356.287 10.2674 407.113 1.43816C434.536 -3.32565 462.216 8.74572 474.327 33.8064C497.299 81.3404 530.146 165.52 530.146 258.238C530.146 356.257 493.435 444.853 470.492 490.652C460.055 511.486 438.357 523.444 415.055 523.444H69.5333C27.4744 523.444 -4.56502 485.674 1.67015 444.08C11.0989 381.181 22.4063 297.577 22.4063 258.364C22.4063 221.772 12.5594 146.521 3.58131 85.514Z" fill="#BDBDBD"/>
</svg>
