<svg width="557" height="472" viewBox="0 0 557 472" fill="none" xmlns="http://www.w3.org/2000/svg">
<path fill-rule="evenodd" clip-rule="evenodd" d="M557 163.788C557 40.3883 417.249 -21.8689 325.325 6.97165C233.401 35.8122 250.219 81.5405 201.117 114.605C152.014 147.67 95.3841 134.961 49.7523 171.823C4.12064 208.686 -30.1016 334.644 40.0909 402.582C110.283 470.52 249.784 489.783 350.359 455.089C450.935 420.395 557 287.187 557 163.788Z" fill="#BDBDBD"/>
<mask id="mask0" mask-type="alpha" maskUnits="userSpaceOnUse" x="0" y="0" width="557" height="472">
<path fill-rule="evenodd" clip-rule="evenodd" d="M557 163.788C557 40.3883 417.249 -21.8689 325.325 6.97165C233.401 35.8122 250.219 81.5405 201.117 114.605C152.014 147.67 95.3841 134.961 49.7523 171.823C4.12064 208.686 -30.1016 334.644 40.0909 402.582C110.283 470.52 249.784 489.783 350.359 455.089C450.935 420.395 557 287.187 557 163.788Z" fill="white"/>
</mask>
<g mask="url(#mask0)">
</g>
</svg>
