<svg width="557" height="566" viewBox="0 0 557 566" fill="none" xmlns="http://www.w3.org/2000/svg">
<path fill-rule="evenodd" clip-rule="evenodd" d="M557 196.407C557 48.4318 417.249 -26.2241 325.325 8.36007C233.401 42.9442 250.219 97.7795 201.117 137.429C152.014 177.079 95.3841 161.838 49.7523 206.043C4.12064 250.247 -30.1016 401.289 40.0909 482.757C110.283 564.226 249.784 587.325 350.359 545.721C450.935 504.117 557 344.382 557 196.407Z" fill="#BDBDBD"/>
<mask id="mask0" mask-type="alpha" maskUnits="userSpaceOnUse" x="0" y="0" width="557" height="566">
<path fill-rule="evenodd" clip-rule="evenodd" d="M557 196.407C557 48.4318 417.249 -26.2241 325.325 8.36007C233.401 42.9442 250.219 97.7795 201.117 137.429C152.014 177.079 95.3841 161.838 49.7523 206.043C4.12064 250.247 -30.1016 401.289 40.0909 482.757C110.283 564.226 249.784 587.325 350.359 545.721C450.935 504.117 557 344.382 557 196.407Z" fill="white"/>
</mask>
<g mask="url(#mask0)">
</g>
</svg>
